<svg xmlns="http://www.w3.org/2000/svg" viewBox="0 0 1200 1800" font-family="Arial, Helvetica, sans-serif">
  <defs>
    <style>
      .title { font-size: 24px; font-weight: bold; fill: #333; }
      .subtitle { font-size: 16px; fill: #555; }
      .label { font-size: 13px; fill: #666; }
      .small { font-size: 11px; fill: #888; }
      .btn-text { font-size: 14px; fill: white; font-weight: bold; }
      .link { font-size: 13px; fill: #4A90D9; }
      .section-title { font-size: 18px; font-weight: bold; fill: #333; }
      .placeholder { fill: #E8E8E8; stroke: #CCC; stroke-width: 1; }
      .card { fill: white; stroke: #DDD; stroke-width: 1; rx: 8; }
      .btn { fill: #4A90D9; rx: 6; }
      .btn-cart { fill: #27AE60; rx: 6; }
      .header-bg { fill: #2C3E50; }
      .footer-bg { fill: #34495E; }
      .divider { stroke: #E0E0E0; stroke-width: 1; }
      .star-filled { fill: #F39C12; font-size: 18px; }
      .star-empty { fill: #DDD; font-size: 18px; }
      .spec-row-even { fill: #F8F9FA; }
      .spec-row-odd { fill: white; }
      .tab-active { fill: #4A90D9; }
      .tab-inactive { fill: #E8E8E8; }
    </style>
  </defs>

  <!-- Background -->
  <rect width="1200" height="1800" fill="#F8F9FA"/>

  <!-- Page annotation -->


  <!-- ========== HEADER ========== -->
  <rect x="0" y="40" width="1200" height="70" class="header-bg"/>
  <rect x="40" y="52" width="45" height="45" rx="8" fill="#F39C12"/>
  <text x="63" y="82" text-anchor="middle" font-size="18" fill="white" font-weight="bold">💡</text>
  <text x="100" y="72" font-size="18" fill="white" font-weight="bold">ЛампоМаркет</text>
  <text x="100" y="88" font-size="10" fill="#BDC3C7">Завод-производитель</text>
  <text x="380" y="80" font-size="14" fill="#BDC3C7">Главная</text>
  <text x="470" y="80" font-size="14" fill="#BDC3C7">Каталог</text>
  <text x="560" y="80" font-size="14" fill="#BDC3C7">О компании</text>
  <text x="670" y="80" font-size="14" fill="#BDC3C7">Контакты</text>
  <rect x="1050" y="58" width="110" height="36" rx="18" fill="none" stroke="#BDC3C7" stroke-width="1"/>
  <text x="1080" y="81" font-size="16">🛒</text>
  <text x="1100" y="80" font-size="13" fill="#ECF0F1">Корзина (2)</text>

  <!-- ========== BREADCRUMB ========== -->
  <text x="60" y="140" font-size="13" fill="#4A90D9">Главная</text>
  <text x="115" y="140" font-size="13" fill="#999"> / </text>
  <text x="128" y="140" font-size="13" fill="#4A90D9">Каталог</text>
  <text x="180" y="140" font-size="13" fill="#999"> / </text>
  <text x="193" y="140" font-size="13" fill="#333" font-weight="bold">LED Лампа E27 10W 800лм</text>

  <!-- ========== MAIN PRODUCT SECTION ========== -->
  <rect x="40" y="160" width="1120" height="550" rx="12" fill="white" stroke="#E0E0E0" stroke-width="1"/>

  <!-- Product images (left) -->
  <!-- Main image -->
  <rect x="70" y="185" width="430" height="380" rx="8" class="placeholder"/>
  <text x="285" y="385" text-anchor="middle" font-size="18" fill="#AAA">[ Основное фото товара ]</text>

  <!-- Thumbnail gallery -->
  <rect x="70" y="580" width="95" height="80" rx="4" fill="#4A90D9" stroke="#4A90D9" stroke-width="2" opacity="0.15"/>
  <rect x="70" y="580" width="95" height="80" rx="4" class="placeholder" stroke="#4A90D9" stroke-width="2"/>
  <text x="117" y="625" text-anchor="middle" class="small">Фото 1</text>
  <rect x="175" y="580" width="95" height="80" rx="4" class="placeholder"/>
  <text x="222" y="625" text-anchor="middle" class="small">Фото 2</text>
  <rect x="280" y="580" width="95" height="80" rx="4" class="placeholder"/>
  <text x="327" y="625" text-anchor="middle" class="small">Фото 3</text>
  <rect x="385" y="580" width="95" height="80" rx="4" class="placeholder"/>
  <text x="432" y="625" text-anchor="middle" class="small">Фото 4</text>

  <!-- Product info (right) -->
  <text x="540" y="210" font-size="26" fill="#2C3E50" font-weight="bold">LED Лампа E27 10W 800лм</text>
  <text x="540" y="235" font-size="13" fill="#999">Артикул: LP-E27-10W-800</text>

  <!-- Rating -->
  <text x="540" y="265" class="star-filled">★★★★</text>
  <text x="612" y="265" class="star-empty">★</text>
  <text x="636" y="265" font-size="13" fill="#666">(4.2 / 12 отзывов)</text>

  <!-- Availability -->
  <rect x="540" y="280" width="90" height="26" rx="13" fill="#E8F8F5" stroke="#27AE60" stroke-width="1"/>
  <text x="585" y="298" text-anchor="middle" font-size="12" fill="#27AE60" font-weight="bold">✓ В наличии</text>
  <text x="640" y="298" font-size="12" fill="#888">Остаток: 245 шт</text>

  <!-- Price -->
  <text x="540" y="340" font-size="14" fill="#999" text-decoration="line-through">250 ₽</text>
  <text x="540" y="375" font-size="36" fill="#E74C3C" font-weight="bold">200 ₽</text>
  <rect x="680" y="350" width="80" height="30" rx="15" fill="#E74C3C"/>
  <text x="720" y="370" text-anchor="middle" font-size="12" fill="white" font-weight="bold">−20%</text>


  <!-- Short description -->
  <text x="540" y="425" font-size="14" fill="#555">Светодиодная лампа нового поколения с</text>
  <text x="540" y="445" font-size="14" fill="#555">увеличенным сроком службы. Идеально подходит</text>
  <text x="540" y="465" font-size="14" fill="#555">для домашнего и офисного освещения.</text>


  <!-- Quantity selector + Add to cart -->
  <text x="540" y="525" font-size="14" fill="#333" font-weight="bold">Количество:</text>
  <rect x="540" y="535" width="40" height="40" rx="6" fill="white" stroke="#CCC" stroke-width="1"/>
  <text x="560" y="562" text-anchor="middle" font-size="18" fill="#666">−</text>
  <rect x="585" y="535" width="60" height="40" rx="0" fill="white" stroke="#CCC" stroke-width="1"/>
  <text x="615" y="562" text-anchor="middle" font-size="16" fill="#333" font-weight="bold">1</text>
  <rect x="650" y="535" width="40" height="40" rx="6" fill="white" stroke="#CCC" stroke-width="1"/>
  <text x="670" y="562" text-anchor="middle" font-size="18" fill="#666">+</text>

  <rect x="720" y="535" width="200" height="45" class="btn-cart"/>
  <text x="820" y="564" text-anchor="middle" font-size="15" fill="white" font-weight="bold">🛒 В корзину</text>

  <rect x="935" y="535" width="55" height="45" rx="6" fill="white" stroke="#CCC" stroke-width="1"/>
  <text x="962" y="564" text-anchor="middle" font-size="20">♡</text>

  <!-- Quick specs -->
  <line x1="540" y1="600" x2="1130" y2="600" class="divider"/>
  <text x="540" y="625" font-size="12" fill="#888">Категория: <tspan fill="#333">LED-лампы</tspan></text>
  <text x="540" y="645" font-size="12" fill="#888">Цоколь: <tspan fill="#333">E27</tspan>  ·  Форма: <tspan fill="#333">A60</tspan>  ·  Тип: <tspan fill="#333">LED</tspan></text>
  <text x="540" y="665" font-size="12" fill="#888">Поставщик: <tspan fill="#333">ООО СветТехно</tspan></text>
  <text x="540" y="685" font-size="12" fill="#888">Доступно с: <tspan fill="#333">01.01.2026</tspan></text>

  <!-- ========== TABS: Характеристики / Описание / Отзывы ========== -->
  <g transform="translate(40, 740)">
    <rect x="0" y="0" width="160" height="45" rx="8" class="tab-active"/>
    <text x="80" y="28" text-anchor="middle" font-size="14" fill="white" font-weight="bold">Характеристики</text>
    <rect x="165" y="0" width="130" height="45" rx="8" class="tab-inactive"/>
    <text x="230" y="28" text-anchor="middle" font-size="14" fill="#666">Описание</text>
    <rect x="300" y="0" width="160" height="45" rx="8" class="tab-inactive"/>
    <text x="380" y="28" text-anchor="middle" font-size="14" fill="#666">Отзывы (12)</text>
  </g>

  <!-- Specifications table -->
  <rect x="40" y="800" width="1120" height="330" rx="8" fill="white" stroke="#E0E0E0" stroke-width="1"/>

  <!-- Table rows -->
  <rect x="45" y="805" width="1110" height="35" class="spec-row-even"/>
  <text x="70" y="828" font-size="13" fill="#666">Тип лампы</text>
  <text x="400" y="828" font-size="13" fill="#333" font-weight="bold">LED (светодиодная)</text>


  <rect x="45" y="840" width="1110" height="35" class="spec-row-odd"/>
  <text x="70" y="863" font-size="13" fill="#666">Цоколь</text>
  <text x="400" y="863" font-size="13" fill="#333" font-weight="bold">E27 (стандартный)</text>


  <rect x="45" y="875" width="1110" height="35" class="spec-row-even"/>
  <text x="70" y="898" font-size="13" fill="#666">Форма колбы</text>
  <text x="400" y="898" font-size="13" fill="#333" font-weight="bold">A60 (груша)</text>


  <rect x="45" y="910" width="1110" height="35" class="spec-row-odd"/>
  <text x="70" y="933" font-size="13" fill="#666">Яркость</text>
  <text x="400" y="933" font-size="13" fill="#333" font-weight="bold">800 лм</text>


  <rect x="45" y="945" width="1110" height="35" class="spec-row-even"/>
  <text x="70" y="968" font-size="13" fill="#666">Мощность</text>
  <text x="400" y="968" font-size="13" fill="#333" font-weight="bold">10 Вт</text>


  <rect x="45" y="980" width="1110" height="35" class="spec-row-odd"/>
  <text x="70" y="1003" font-size="13" fill="#666">Категория</text>
  <text x="400" y="1003" font-size="13" fill="#333" font-weight="bold">LED-лампы</text>


  <rect x="45" y="1015" width="1110" height="35" class="spec-row-even"/>
  <text x="70" y="1038" font-size="13" fill="#666">Поставщик</text>
  <text x="400" y="1038" font-size="13" fill="#333" font-weight="bold">ООО СветТехно</text>


  <rect x="45" y="1050" width="1110" height="35" class="spec-row-odd"/>
  <text x="70" y="1073" font-size="13" fill="#666">Статус наличия</text>
  <text x="400" y="1073" font-size="13" fill="#27AE60" font-weight="bold">В наличии (245 шт)</text>


  <rect x="45" y="1085" width="1110" height="35" class="spec-row-even"/>
  <text x="70" y="1108" font-size="13" fill="#666">Промо-акция</text>
  <text x="400" y="1108" font-size="13" fill="#E74C3C" font-weight="bold">Скидка 20%</text>


  <!-- ========== REVIEWS SECTION ========== -->
  <text x="60" y="1175" class="section-title" font-size="22">💬 Отзывы покупателей</text>

  <line x1="60" y1="1185" x2="1140" y2="1185" class="divider"/>

  <!-- Review 1 -->
  <rect x="60" y="1200" width="1080" height="140" rx="8" fill="white" stroke="#E8E8E8" stroke-width="1"/>
  <text x="90" y="1230" font-size="14" fill="#333" font-weight="bold">Анонимный покупатель</text>
  <text x="300" y="1230" class="star-filled" font-size="14">★★★★★</text>
  <text x="380" y="1230" font-size="12" fill="#888">5/5</text>
  <text x="1050" y="1230" font-size="12" fill="#999" text-anchor="end">15.03.2026</text>
  <text x="90" y="1255" font-size="13" fill="#555">Отличная лампа! Очень яркая и при этом экономичная. Работает уже 3 месяца без проблем.</text>
  <text x="90" y="1275" font-size="13" fill="#555">Свет приятного тёплого оттенка, рекомендую!</text>


  <!-- Review 2 -->
  <rect x="60" y="1350" width="1080" height="130" rx="8" fill="white" stroke="#E8E8E8" stroke-width="1"/>
  <text x="90" y="1380" font-size="14" fill="#333" font-weight="bold">Покупатель</text>
  <text x="200" y="1380" class="star-filled" font-size="14">★★★★</text>
  <text x="268" y="1380" font-size="14" fill="#DDD">★</text>
  <text x="290" y="1380" font-size="12" fill="#888">4/5</text>
  <text x="1050" y="1380" font-size="12" fill="#999" text-anchor="end">10.02.2026</text>
  <text x="90" y="1410" font-size="13" fill="#555">Хорошая лампа за свои деньги. Единственное — упаковка могла бы быть надёжнее.</text>


  <!-- Leave review form -->
  <rect x="60" y="1500" width="1080" height="120" rx="8" fill="#F0F4F8" stroke="#D0D8E0" stroke-width="1"/>
  <text x="90" y="1530" font-size="14" fill="#333" font-weight="bold">Оставить отзыв</text>
  <text x="90" y="1550" font-size="13" fill="#888">Оценка: </text>
  <text x="160" y="1550" font-size="16" fill="#DDD">★ ★ ★ ★ ★</text>
  <rect x="90" y="1560" width="800" height="36" rx="4" fill="white" stroke="#CCC" stroke-width="1"/>
  <text x="105" y="1583" font-size="12" fill="#AAA">Напишите ваш отзыв...</text>
  <rect x="900" y="1560" width="120" height="36" class="btn"/>
  <text x="960" y="1583" text-anchor="middle" font-size="13" fill="white" font-weight="bold">Отправить</text>

  <!-- ========== FOOTER ========== -->
  <rect x="0" y="1650" width="1200" height="150" class="footer-bg"/>
  <text x="60" y="1690" font-size="16" fill="white" font-weight="bold">ЛампоМаркет</text>
  <text x="60" y="1710" font-size="12" fill="#BDC3C7">© 2026 Завод-производитель светотехники</text>
  <text x="400" y="1685" font-size="13" fill="#ECF0F1" font-weight="bold">Навигация</text>
  <text x="400" y="1705" font-size="12" fill="#BDC3C7">Каталог · О компании · Контакты</text>
  <text x="700" y="1685" font-size="13" fill="#ECF0F1" font-weight="bold">Контакты</text>
  <text x="700" y="1705" font-size="12" fill="#BDC3C7">📞 +7 (495) 123-45-67 · 📧 info@lampomarket.ru</text>


</svg>
