<svg xmlns="http://www.w3.org/2000/svg" viewBox="0 0 1200 1300" font-family="Arial, Helvetica, sans-serif">
  <defs>
    <style>
      .title { font-size: 24px; font-weight: bold; fill: #333; }
      .subtitle { font-size: 16px; fill: #555; }
      .label { font-size: 13px; fill: #666; }
      .small { font-size: 11px; fill: #888; }
      .btn-text { font-size: 14px; fill: white; font-weight: bold; }
      .link { font-size: 13px; fill: #4A90D9; }
      .section-title { font-size: 18px; font-weight: bold; fill: #333; }
      .placeholder { fill: #E8E8E8; stroke: #CCC; stroke-width: 1; }
      .card { fill: white; stroke: #DDD; stroke-width: 1; rx: 8; }
      .btn { fill: #4A90D9; rx: 6; }
      .btn-danger { fill: #E74C3C; rx: 6; }
      .btn-success { fill: #27AE60; rx: 6; }
      .header-bg { fill: #2C3E50; }
      .footer-bg { fill: #34495E; }
      .divider { stroke: #E0E0E0; stroke-width: 1; }
      .input { fill: white; stroke: #CCC; stroke-width: 1; rx: 4; }
    </style>
  </defs>

  <!-- Background -->
  <rect width="1200" height="1300" fill="#F8F9FA"/>



  <!-- ========== HEADER ========== -->
  <rect x="0" y="40" width="1200" height="70" class="header-bg"/>
  <rect x="40" y="52" width="45" height="45" rx="8" fill="#F39C12"/>
  <text x="63" y="82" text-anchor="middle" font-size="18" fill="white" font-weight="bold">💡</text>
  <text x="100" y="72" font-size="18" fill="white" font-weight="bold">ЛампоМаркет</text>
  <text x="100" y="88" font-size="10" fill="#BDC3C7">Завод-производитель</text>
  <text x="380" y="80" font-size="14" fill="#BDC3C7">Главная</text>
  <text x="470" y="80" font-size="14" fill="#BDC3C7">Каталог</text>
  <text x="560" y="80" font-size="14" fill="#BDC3C7">О компании</text>
  <text x="670" y="80" font-size="14" fill="#BDC3C7">Контакты</text>
  <rect x="1050" y="58" width="110" height="36" rx="18" fill="#4A90D9"/>
  <text x="1080" y="81" font-size="16">🛒</text>
  <text x="1100" y="80" font-size="13" fill="white" font-weight="bold">Корзина (3)</text>

  <!-- ========== BREADCRUMB ========== -->
  <text x="60" y="140" font-size="13" fill="#4A90D9">Главная</text>
  <text x="115" y="140" font-size="13" fill="#999"> / </text>
  <text x="130" y="140" font-size="13" fill="#333" font-weight="bold">Корзина</text>

  <!-- ========== PAGE TITLE ========== -->
  <text x="60" y="180" class="title">🛒 Корзина</text>
  <text x="220" y="180" font-size="14" fill="#888">3 товара</text>

  <!-- Important note -->
  <rect x="60" y="195" width="1080" height="35" rx="6" fill="#E8F8F5" stroke="#27AE60" stroke-width="1"/>
  <text x="85" y="217" font-size="12" fill="#27AE60" font-weight="bold">ℹ Корзина работает через Local Storage браузера — без обращений к API</text>

  <!-- ========== CART TABLE ========== -->
  <!-- Table header -->
  <rect x="60" y="250" width="780" height="40" rx="8" fill="#2C3E50"/>
  <text x="90" y="275" font-size="13" fill="white" font-weight="bold">Товар</text>
  <text x="430" y="275" font-size="13" fill="white" font-weight="bold">Цена</text>
  <text x="530" y="275" font-size="13" fill="white" font-weight="bold">Количество</text>
  <text x="670" y="275" font-size="13" fill="white" font-weight="bold">Сумма</text>
  <text x="780" y="275" font-size="13" fill="white" font-weight="bold"></text>

  <!-- Cart Item 1 -->
  <rect x="60" y="295" width="780" height="110" fill="white" stroke="#E8E8E8" stroke-width="1"/>
  <rect x="75" y="305" width="85" height="85" rx="4" class="placeholder"/>
  <text x="117" y="355" text-anchor="middle" class="small">[ Фото ]</text>
  
  <text x="175" y="330" font-size="14" fill="#333" font-weight="bold">LED Лампа E27 10W</text>
  <text x="175" y="350" font-size="11" fill="#888">Цоколь: E27 · Форма: A60</text>
  <text x="175" y="370" font-size="11" fill="#888">Артикул: LP-E27-10W-800</text>
  <text x="175" y="390" font-size="11" fill="#27AE60">✓ В наличии</text>
  
  <text x="430" y="350" font-size="15" fill="#333" font-weight="bold">200 ₽</text>
  <text x="430" y="370" font-size="11" fill="#999" text-decoration="line-through">250 ₽</text>
  
  <!-- Quantity controls -->
  <rect x="530" y="335" width="30" height="30" rx="4" fill="white" stroke="#CCC" stroke-width="1"/>
  <text x="545" y="356" text-anchor="middle" font-size="16" fill="#666">−</text>
  <rect x="563" y="335" width="45" height="30" fill="white" stroke="#CCC" stroke-width="1"/>
  <text x="585" y="356" text-anchor="middle" font-size="14" fill="#333" font-weight="bold">2</text>
  <rect x="611" y="335" width="30" height="30" rx="4" fill="white" stroke="#CCC" stroke-width="1"/>
  <text x="626" y="356" text-anchor="middle" font-size="16" fill="#666">+</text>
  
  <text x="670" y="355" font-size="16" fill="#2C3E50" font-weight="bold">400 ₽</text>
  
  <text x="790" y="355" font-size="18" fill="#E74C3C" style="cursor:pointer">✕</text>

  <!-- Cart Item 2 -->
  <rect x="60" y="410" width="780" height="110" fill="white" stroke="#E8E8E8" stroke-width="1"/>
  <rect x="75" y="420" width="85" height="85" rx="4" class="placeholder"/>
  <text x="117" y="470" text-anchor="middle" class="small">[ Фото ]</text>
  
  <text x="175" y="445" font-size="14" fill="#333" font-weight="bold">Филаментная A60 E14</text>
  <text x="175" y="465" font-size="11" fill="#888">Цоколь: E14 · Форма: A60</text>
  <text x="175" y="485" font-size="11" fill="#888">Артикул: LP-FIL-A60-E14</text>
  <text x="175" y="505" font-size="11" fill="#27AE60">✓ В наличии</text>
  
  <text x="430" y="465" font-size="15" fill="#333" font-weight="bold">153 ₽</text>
  <text x="430" y="485" font-size="11" fill="#999" text-decoration="line-through">180 ₽</text>
  
  <rect x="530" y="450" width="30" height="30" rx="4" fill="white" stroke="#CCC" stroke-width="1"/>
  <text x="545" y="471" text-anchor="middle" font-size="16" fill="#666">−</text>
  <rect x="563" y="450" width="45" height="30" fill="white" stroke="#CCC" stroke-width="1"/>
  <text x="585" y="471" text-anchor="middle" font-size="14" fill="#333" font-weight="bold">1</text>
  <rect x="611" y="450" width="30" height="30" rx="4" fill="white" stroke="#CCC" stroke-width="1"/>
  <text x="626" y="471" text-anchor="middle" font-size="16" fill="#666">+</text>
  
  <text x="670" y="470" font-size="16" fill="#2C3E50" font-weight="bold">153 ₽</text>
  
  <text x="790" y="470" font-size="18" fill="#E74C3C" style="cursor:pointer">✕</text>

  <!-- Cart Item 3 -->
  <rect x="60" y="525" width="780" height="110" fill="white" stroke="#E8E8E8" stroke-width="1"/>
  <rect x="75" y="535" width="85" height="85" rx="4" class="placeholder"/>
  <text x="117" y="585" text-anchor="middle" class="small">[ Фото ]</text>
  
  <text x="175" y="560" font-size="14" fill="#333" font-weight="bold">Трубка T8 G13 18W</text>
  <text x="175" y="580" font-size="11" fill="#888">Цоколь: G13 · Форма: T8</text>
  <text x="175" y="600" font-size="11" fill="#888">Артикул: LP-T8-G13-18W</text>
  <text x="175" y="620" font-size="11" fill="#27AE60">✓ В наличии</text>
  
  <text x="430" y="580" font-size="15" fill="#333" font-weight="bold">320 ₽</text>
  
  <rect x="530" y="565" width="30" height="30" rx="4" fill="white" stroke="#CCC" stroke-width="1"/>
  <text x="545" y="586" text-anchor="middle" font-size="16" fill="#666">−</text>
  <rect x="563" y="565" width="45" height="30" fill="white" stroke="#CCC" stroke-width="1"/>
  <text x="585" y="586" text-anchor="middle" font-size="14" fill="#333" font-weight="bold">3</text>
  <rect x="611" y="565" width="30" height="30" rx="4" fill="white" stroke="#CCC" stroke-width="1"/>
  <text x="626" y="586" text-anchor="middle" font-size="16" fill="#666">+</text>
  
  <text x="670" y="585" font-size="16" fill="#2C3E50" font-weight="bold">960 ₽</text>
  
  <text x="790" y="585" font-size="18" fill="#E74C3C" style="cursor:pointer">✕</text>

  <!-- Clear cart link -->
  <text x="60" y="665" font-size="13" fill="#E74C3C" style="cursor:pointer">🗑 Очистить корзину</text>
  <text x="560" y="665" font-size="13" fill="#4A90D9" style="cursor:pointer">← Вернуться к покупкам</text>

  <!-- ========== ORDER SUMMARY (RIGHT SIDEBAR) ========== -->
  <rect x="870" y="250" width="270" height="390" rx="12" fill="white" stroke="#DDD" stroke-width="1"/>
  
  <text x="900" y="285" font-size="16" fill="#333" font-weight="bold">Итого</text>
  <line x1="900" y1="295" x2="1110" y2="295" class="divider"/>
  
  <text x="900" y="325" font-size="13" fill="#666">Товаров:</text>
  <text x="1100" y="325" text-anchor="end" font-size="13" fill="#333">6 шт</text>
  
  <text x="900" y="350" font-size="13" fill="#666">Сумма без скидки:</text>
  <text x="1100" y="350" text-anchor="end" font-size="13" fill="#999" text-decoration="line-through">1 640 ₽</text>
  
  <text x="900" y="375" font-size="13" fill="#E74C3C">Скидка:</text>
  <text x="1100" y="375" text-anchor="end" font-size="13" fill="#E74C3C">−127 ₽</text>

  <line x1="900" y1="390" x2="1110" y2="390" class="divider"/>
  
  <text x="900" y="420" font-size="16" fill="#333" font-weight="bold">К оплате:</text>
  <text x="1100" y="420" text-anchor="end" font-size="22" fill="#2C3E50" font-weight="bold">1 513 ₽</text>
  
  <rect x="890" y="445" width="230" height="50" class="btn-success"/>
  <text x="1005" y="476" text-anchor="middle" font-size="16" fill="white" font-weight="bold">Оформить заказ →</text>

  <text x="905" y="520" font-size="11" fill="#888">Способы оплаты:</text>
  <text x="905" y="558" font-size="12" fill="#666">💰 Наличные/картой курьеру</text>
  
  <text x="905" y="605" class="small" fill="#AAA">Доставка рассчитывается</text>
  <text x="905" y="620" class="small" fill="#AAA">при оформлении заказа</text>


  <!-- ========== FOOTER ========== -->
  <rect x="0" y="1010" width="1200" height="150" class="footer-bg"/>
  <text x="60" y="1050" font-size="16" fill="white" font-weight="bold">ЛампоМаркет</text>
  <text x="60" y="1070" font-size="12" fill="#BDC3C7">© 2026 Завод-производитель светотехники</text>
  <text x="400" y="1045" font-size="13" fill="#ECF0F1" font-weight="bold">Навигация</text>
  <text x="400" y="1065" font-size="12" fill="#BDC3C7">Каталог · О компании · Контакты</text>
  <text x="700" y="1045" font-size="13" fill="#ECF0F1" font-weight="bold">Контакты</text>
  <text x="700" y="1065" font-size="12" fill="#BDC3C7">📞 +7 (495) 123-45-67 · 📧 info@lampomarket.ru</text>


</svg>
