<svg xmlns="http://www.w3.org/2000/svg" viewBox="0 0 1200 1100" font-family="Arial, Helvetica, sans-serif">
  <defs>
    <style>
      .small { font-size: 11px; fill: #888; }
      .sidebar-bg { fill: #1A252F; }
      .sidebar-item { fill: none; }
      .sidebar-active { fill: #4A90D9; rx: 6; }
      .card-stat { fill: white; stroke: #E0E0E0; stroke-width: 1; rx: 12; }
      .divider { stroke: #E0E0E0; stroke-width: 1; }
      .chart-bg { fill: white; stroke: #E0E0E0; stroke-width: 1; rx: 8; }
    </style>
  </defs>

  <rect width="1200" height="1100" fill="#F0F2F5"/>

  <!-- ========== ADMIN SIDEBAR ========== -->
  <rect x="0" y="35" width="240" height="1065" class="sidebar-bg"/>
  
  <!-- Logo -->
  <rect x="20" y="50" width="200" height="60" rx="8" fill="#2C3E50"/>
  <text x="50" y="82" font-size="16" fill="white" font-weight="bold">💡 ЛампоМаркет</text>
  <text x="50" y="100" font-size="10" fill="#7F8C8D">Панель администратора</text>

  <!-- Admin info -->
  <rect x="20" y="125" width="200" height="50" rx="8" fill="#2C3E50"/>
  <circle cx="45" cy="150" r="15" fill="#4A90D9"/>
  <text x="45" y="155" text-anchor="middle" font-size="14" fill="white">A</text>
  <text x="70" y="145" font-size="12" fill="white">Admin</text>
  <text x="70" y="161" font-size="10" fill="#7F8C8D">admin@lampomarket.ru</text>

  <!-- Navigation -->
  <rect x="15" y="195" width="210" height="40" class="sidebar-active"/>
  <text x="50" y="220" font-size="14" fill="white" font-weight="bold">📊 Дашборд</text>
  
  <rect x="15" y="245" width="210" height="40" class="sidebar-item"/>
  <text x="50" y="270" font-size="14" fill="#95A5A6">📦 Товары</text>
  
  <rect x="15" y="295" width="210" height="40" class="sidebar-item"/>
  <text x="50" y="320" font-size="14" fill="#95A5A6">📥 Импорт</text>
  
  <rect x="15" y="345" width="210" height="40" class="sidebar-item"/>
  <text x="50" y="370" font-size="14" fill="#95A5A6">📋 Справочники</text>

  <line x1="30" y1="410" x2="220" y2="410" stroke="#2C3E50" stroke-width="1"/>

  <rect x="15" y="425" width="210" height="40" class="sidebar-item"/>
  <text x="50" y="450" font-size="14" fill="#95A5A6">🛒 Заказы</text>

  <line x1="30" y1="485" x2="220" y2="485" stroke="#2C3E50" stroke-width="1"/>

  <!-- Logout -->
  <rect x="15" y="1040" width="210" height="40" rx="6" fill="#E74C3C" opacity="0.8"/>
  <text x="50" y="1065" font-size="14" fill="white">🚪 Выйти</text>

  <!-- ========== TOP BAR ========== -->
  <rect x="240" y="35" width="960" height="55" fill="white" stroke="#E0E0E0" stroke-width="1"/>
  <text x="270" y="68" font-size="18" fill="#2C3E50" font-weight="bold">📊 Дашборд</text>

  <!-- Last update time -->
  <text x="1150" y="60" text-anchor="end" font-size="11" fill="#999">Последнее обновление: 12.04.2026 13:25</text>
  <text x="1150" y="75" text-anchor="end" font-size="11" fill="#4A90D9">🔄 Обновить</text>

  <!-- ========== STAT CARDS ROW ========== -->
  <!-- Card 1: Total orders -->
  <rect x="265" y="110" width="215" height="110" class="card-stat"/>
  <text x="290" y="140" font-size="28">📦</text>
  <text x="325" y="140" font-size="13" fill="#888">Заказов сегодня</text>
  <text x="290" y="180" font-size="32" fill="#2C3E50" font-weight="bold">47</text>
  <text x="350" y="180" font-size="12" fill="#27AE60">↑ +12%</text>


  <!-- Card 2: Revenue -->
  <rect x="500" y="110" width="215" height="110" class="card-stat"/>
  <text x="525" y="140" font-size="28">💰</text>
  <text x="560" y="140" font-size="13" fill="#888">Выручка за день</text>
  <text x="525" y="180" font-size="28" fill="#2C3E50" font-weight="bold">156 420 ₽</text>


  <!-- Card 3: Products -->
  <rect x="735" y="110" width="215" height="110" class="card-stat"/>
  <text x="760" y="140" font-size="28">🏷️</text>
  <text x="795" y="140" font-size="13" fill="#888">Товаров активных</text>
  <text x="760" y="180" font-size="32" fill="#2C3E50" font-weight="bold">342</text>
  <text x="830" y="180" font-size="12" fill="#E74C3C">8 нет в нал.</text>


  <!-- Card 4: Avg check -->
  <rect x="970" y="110" width="215" height="110" class="card-stat"/>
  <text x="995" y="140" font-size="28">📊</text>
  <text x="1030" y="140" font-size="13" fill="#888">Средний чек</text>
  <text x="995" y="180" font-size="32" fill="#2C3E50" font-weight="bold">3 328 ₽</text>


  <!-- ========== CHART: Sales over time ========== -->
  <rect x="265" y="240" width="460" height="320" class="chart-bg"/>
  <text x="290" y="270" font-size="15" fill="#333" font-weight="bold">📈 Продажи за последние 7 дней</text>


  <!-- Simple bar chart -->
  <g transform="translate(310, 310)">
    <!-- Y axis -->
    <line x1="0" y1="0" x2="0" y2="200" stroke="#E0E0E0" stroke-width="1"/>
    <text x="-10" y="5" text-anchor="end" font-size="10" fill="#999">50</text>
    <text x="-10" y="55" text-anchor="end" font-size="10" fill="#999">40</text>
    <text x="-10" y="105" text-anchor="end" font-size="10" fill="#999">30</text>
    <text x="-10" y="155" text-anchor="end" font-size="10" fill="#999">20</text>
    <text x="-10" y="205" text-anchor="end" font-size="10" fill="#999">10</text>
    <!-- X axis -->
    <line x1="0" y1="200" x2="380" y2="200" stroke="#E0E0E0" stroke-width="1"/>
    <!-- Bars -->
    <rect x="15" y="80" width="40" height="120" rx="4" fill="#AED6F1"/>
    <rect x="70" y="50" width="40" height="150" rx="4" fill="#AED6F1"/>
    <rect x="125" y="100" width="40" height="100" rx="4" fill="#AED6F1"/>
    <rect x="180" y="40" width="40" height="160" rx="4" fill="#AED6F1"/>
    <rect x="235" y="60" width="40" height="140" rx="4" fill="#AED6F1"/>
    <rect x="290" y="30" width="40" height="170" rx="4" fill="#AED6F1"/>
    <rect x="345" y="10" width="40" height="190" rx="4" fill="#4A90D9"/>
    <!-- Labels -->
    <text x="35" y="218" text-anchor="middle" font-size="9" fill="#999">Пн</text>
    <text x="90" y="218" text-anchor="middle" font-size="9" fill="#999">Вт</text>
    <text x="145" y="218" text-anchor="middle" font-size="9" fill="#999">Ср</text>
    <text x="200" y="218" text-anchor="middle" font-size="9" fill="#999">Чт</text>
    <text x="255" y="218" text-anchor="middle" font-size="9" fill="#999">Пт</text>
    <text x="310" y="218" text-anchor="middle" font-size="9" fill="#999">Сб</text>
    <text x="365" y="218" text-anchor="middle" font-size="9" fill="#999">Вс</text>
  </g>

  <!-- ========== CHART: Top Products ========== -->
  <rect x="745" y="240" width="440" height="320" class="chart-bg"/>
  <text x="770" y="270" font-size="15" fill="#333" font-weight="bold">🏆 Топ-5 товаров по продажам</text>


  <!-- Top products list -->
  <g transform="translate(770, 305)">
    <text x="0" y="15" font-size="13" fill="#333" font-weight="bold">1.</text>
    <text x="25" y="15" font-size="13" fill="#333">LED Лампа E27 10W</text>
    <rect x="250" y="3" width="150" height="16" rx="8" fill="#E8E8E8"/>
    <rect x="250" y="3" width="135" height="16" rx="8" fill="#4A90D9"/>
    <text x="392" y="15" font-size="11" fill="#333">1 245 шт</text>

    <text x="0" y="55" font-size="13" fill="#333" font-weight="bold">2.</text>
    <text x="25" y="55" font-size="13" fill="#333">Филаментная A60 E14</text>
    <rect x="250" y="43" width="150" height="16" rx="8" fill="#E8E8E8"/>
    <rect x="250" y="43" width="110" height="16" rx="8" fill="#27AE60"/>
    <text x="392" y="55" font-size="11" fill="#333">980 шт</text>

    <text x="0" y="95" font-size="13" fill="#333" font-weight="bold">3.</text>
    <text x="25" y="95" font-size="13" fill="#333">Трубка T8 G13</text>
    <rect x="250" y="83" width="150" height="16" rx="8" fill="#E8E8E8"/>
    <rect x="250" y="83" width="85" height="16" rx="8" fill="#F39C12"/>
    <text x="392" y="95" font-size="11" fill="#333">720 шт</text>

    <text x="0" y="135" font-size="13" fill="#333" font-weight="bold">4.</text>
    <text x="25" y="135" font-size="13" fill="#333">Свеча C37 E14</text>
    <rect x="250" y="123" width="150" height="16" rx="8" fill="#E8E8E8"/>
    <rect x="250" y="123" width="60" height="16" rx="8" fill="#E74C3C"/>
    <text x="392" y="135" font-size="11" fill="#333">510 шт</text>

    <text x="0" y="175" font-size="13" fill="#333" font-weight="bold">5.</text>
    <text x="25" y="175" font-size="13" fill="#333">Точечная GU10</text>
    <rect x="250" y="163" width="150" height="16" rx="8" fill="#E8E8E8"/>
    <rect x="250" y="163" width="45" height="16" rx="8" fill="#9B59B6"/>
    <text x="392" y="175" font-size="11" fill="#333">380 шт</text>
  </g>

  <!-- ========== RECENT ORDERS TABLE ========== -->
  <rect x="265" y="580" width="920" height="310" class="chart-bg"/>
  <text x="290" y="610" font-size="15" fill="#333" font-weight="bold">📋 Последние заказы</text>


  <!-- Table header -->
  <rect x="280" y="625" width="890" height="35" rx="4" fill="#F0F2F5"/>
  <text x="300" y="648" font-size="12" fill="#666" font-weight="bold">ID заказа</text>
  <text x="440" y="648" font-size="12" fill="#666" font-weight="bold">Email клиента</text>
  <text x="620" y="648" font-size="12" fill="#666" font-weight="bold">Дата</text>
  <text x="750" y="648" font-size="12" fill="#666" font-weight="bold">Сумма</text>
  <text x="860" y="648" font-size="12" fill="#666" font-weight="bold">Статус</text>
  <text x="1020" y="648" font-size="12" fill="#666" font-weight="bold">Позиций</text>

  <!-- Row 1 -->
  <text x="300" y="685" font-size="12" fill="#4A90D9">#ORD-2847</text>
  <text x="440" y="685" font-size="12" fill="#333">ivan@mail.ru</text>
  <text x="620" y="685" font-size="12" fill="#666">12.04.2026</text>
  <text x="750" y="685" font-size="12" fill="#333" font-weight="bold">4 520 ₽</text>
  <rect x="855" y="672" width="80" height="20" rx="10" fill="#E8F8F5"/>
  <text x="895" y="686" text-anchor="middle" font-size="10" fill="#27AE60">Новый</text>
  <text x="1030" y="685" font-size="12" fill="#333">3</text>

  <!-- Row 2 -->
  <text x="300" y="715" font-size="12" fill="#4A90D9">#ORD-2846</text>
  <text x="440" y="715" font-size="12" fill="#333">anna@gmail.com</text>
  <text x="620" y="715" font-size="12" fill="#666">12.04.2026</text>
  <text x="750" y="715" font-size="12" fill="#333" font-weight="bold">1 890 ₽</text>
  <rect x="855" y="702" width="80" height="20" rx="10" fill="#FEF9E7"/>
  <text x="895" y="716" text-anchor="middle" font-size="10" fill="#F39C12">В работе</text>
  <text x="1030" y="715" font-size="12" fill="#333">2</text>

  <!-- Row 3 -->
  <text x="300" y="745" font-size="12" fill="#4A90D9">#ORD-2845</text>
  <text x="440" y="745" font-size="12" fill="#333">petrov@ya.ru</text>
  <text x="620" y="745" font-size="12" fill="#666">11.04.2026</text>
  <text x="750" y="745" font-size="12" fill="#333" font-weight="bold">12 350 ₽</text>
  <rect x="855" y="732" width="80" height="20" rx="10" fill="#E8F8F5"/>
  <text x="895" y="746" text-anchor="middle" font-size="10" fill="#27AE60">Доставлен</text>
  <text x="1030" y="745" font-size="12" fill="#333">7</text>

  <!-- Row 4 -->
  <text x="300" y="775" font-size="12" fill="#4A90D9">#ORD-2844</text>
  <text x="440" y="775" font-size="12" fill="#333">company@biz.ru</text>
  <text x="620" y="775" font-size="12" fill="#666">11.04.2026</text>
  <text x="750" y="775" font-size="12" fill="#333" font-weight="bold">45 300 ₽</text>
  <rect x="855" y="762" width="80" height="20" rx="10" fill="#E8F8F5"/>
  <text x="895" y="776" text-anchor="middle" font-size="10" fill="#27AE60">Доставлен</text>
  <text x="1030" y="775" font-size="12" fill="#333">15</text>

  <!-- View all link -->
  <text x="290" y="860" font-size="13" fill="#4A90D9">Показать все заказы →</text>

</svg>
