<svg xmlns="http://www.w3.org/2000/svg" viewBox="0 0 1200 1300" font-family="Arial, Helvetica, sans-serif">
  <defs>
    <style>
      .small { font-size: 11px; fill: #888; }
      .sidebar-bg { fill: #1A252F; }
      .sidebar-active { fill: #4A90D9; rx: 6; }
      .divider { stroke: #E0E0E0; stroke-width: 1; }
      .input { fill: white; stroke: #CCC; stroke-width: 1; rx: 4; }
      .btn { fill: #4A90D9; rx: 6; }
      .btn-success { fill: #27AE60; rx: 6; }
      .btn-danger { fill: #E74C3C; rx: 6; }
      .btn-warning { fill: #F39C12; rx: 6; }
    </style>
  </defs>

  <rect width="1200" height="1300" fill="#F0F2F5"/>

  <!-- ========== SIDEBAR ========== -->
  <rect x="0" y="35" width="240" height="1265" class="sidebar-bg"/>
  <rect x="20" y="50" width="200" height="60" rx="8" fill="#2C3E50"/>
  <text x="50" y="82" font-size="16" fill="white" font-weight="bold">💡 ЛампоМаркет</text>
  <text x="50" y="100" font-size="10" fill="#7F8C8D">Панель администратора</text>

  <rect x="15" y="130" width="210" height="40" fill="none"/>
  <text x="50" y="155" font-size="14" fill="#95A5A6">📊 Дашборд</text>
  <rect x="15" y="180" width="210" height="40" class="sidebar-active"/>
  <text x="50" y="205" font-size="14" fill="white" font-weight="bold">📦 Товары</text>
  <rect x="15" y="230" width="210" height="40" fill="none"/>
  <text x="50" y="255" font-size="14" fill="#95A5A6">📥 Импорт</text>
  <rect x="15" y="280" width="210" height="40" fill="none"/>
  <text x="50" y="305" font-size="14" fill="#95A5A6">📋 Справочники</text>

  <!-- ========== TOP BAR ========== -->
  <rect x="240" y="35" width="960" height="55" fill="white" stroke="#E0E0E0" stroke-width="1"/>
  <text x="270" y="68" font-size="18" fill="#2C3E50" font-weight="bold">📦 Управление товарами</text>

  <!-- ========== ACTION BAR ========== -->
  <rect x="265" y="105" width="910" height="50" rx="8" fill="white" stroke="#E0E0E0" stroke-width="1"/>
  
  <!-- Search -->
  <rect x="280" y="115" width="300" height="32" class="input" rx="6"/>
  <text x="300" y="136" font-size="13" fill="#AAA">🔍 Поиск товара по названию...</text>

  <!-- Filters -->
  <rect x="595" y="115" width="120" height="32" rx="6" fill="white" stroke="#CCC" stroke-width="1"/>
  <text x="620" y="136" font-size="12" fill="#666">Категория ▾</text>

  <rect x="725" y="115" width="100" height="32" rx="6" fill="white" stroke="#CCC" stroke-width="1"/>
  <text x="745" y="136" font-size="12" fill="#666">Статус ▾</text>

  <!-- Add new button -->
  <rect x="1010" y="115" width="150" height="32" class="btn-success"/>
  <text x="1085" y="136" text-anchor="middle" font-size="13" fill="white" font-weight="bold">+ Добавить товар</text>

  <!-- ========== PRODUCT TABLE ========== -->
  <rect x="265" y="170" width="910" height="40" rx="4" fill="#2C3E50"/>
  <text x="285" y="195" font-size="11" fill="white" font-weight="bold">Фото</text>
  <text x="350" y="195" font-size="11" fill="white" font-weight="bold">Название</text>
  <text x="520" y="195" font-size="11" fill="white" font-weight="bold">Категория</text>
  <text x="620" y="195" font-size="11" fill="white" font-weight="bold">Цена</text>
  <text x="690" y="195" font-size="11" fill="white" font-weight="bold">Остаток</text>
  <text x="760" y="195" font-size="11" fill="white" font-weight="bold">Цоколь</text>
  <text x="830" y="195" font-size="11" fill="white" font-weight="bold">Статус</text>
  <text x="940" y="195" font-size="11" fill="white" font-weight="bold">Действия</text>

  <!-- Row 1 -->
  <rect x="265" y="215" width="910" height="55" fill="white" stroke="#E8E8E8" stroke-width="1"/>
  <rect x="280" y="222" width="40" height="40" rx="4" fill="#E8E8E8"/>
  <text x="300" y="247" text-anchor="middle" font-size="8" fill="#AAA">IMG</text>
  <text x="350" y="240" font-size="12" fill="#333" font-weight="bold">LED Лампа E27 10W 800лм</text>
  <text x="350" y="256" font-size="10" fill="#999">ID: uuid-1234...</text>
  <text x="520" y="248" font-size="12" fill="#666">LED-лампы</text>
  <text x="620" y="248" font-size="12" fill="#333" font-weight="bold">200 ₽</text>
  <text x="690" y="248" font-size="12" fill="#27AE60">245 шт</text>
  <text x="760" y="248" font-size="12" fill="#666">E27</text>
  <rect x="825" y="236" width="70" height="20" rx="10" fill="#E8F8F5"/>
  <text x="860" y="250" text-anchor="middle" font-size="9" fill="#27AE60">Активен</text>
  <!-- Action buttons -->
  <rect x="915" y="230" width="30" height="28" rx="4" fill="white" stroke="#4A90D9" stroke-width="1"/>
  <text x="930" y="249" text-anchor="middle" font-size="12" fill="#4A90D9">✏</text>
  <rect x="950" y="230" width="30" height="28" rx="4" fill="white" stroke="#F39C12" stroke-width="1"/>
  <text x="965" y="249" text-anchor="middle" font-size="12" fill="#F39C12">👁</text>
  <rect x="985" y="230" width="30" height="28" rx="4" fill="white" stroke="#E74C3C" stroke-width="1"/>
  <text x="1000" y="249" text-anchor="middle" font-size="12" fill="#E74C3C">📁</text>

  <!-- Row 2 -->
  <rect x="265" y="275" width="910" height="55" fill="#FAFBFC" stroke="#E8E8E8" stroke-width="1"/>
  <rect x="280" y="282" width="40" height="40" rx="4" fill="#E8E8E8"/>
  <text x="300" y="307" text-anchor="middle" font-size="8" fill="#AAA">IMG</text>
  <text x="350" y="300" font-size="12" fill="#333" font-weight="bold">Филаментная A60 E14</text>
  <text x="350" y="316" font-size="10" fill="#999">ID: uuid-5678...</text>
  <text x="520" y="308" font-size="12" fill="#666">Филаментные</text>
  <text x="620" y="308" font-size="12" fill="#333" font-weight="bold">180 ₽</text>
  <text x="690" y="308" font-size="12" fill="#27AE60">120 шт</text>
  <text x="760" y="308" font-size="12" fill="#666">E14</text>
  <rect x="825" y="296" width="70" height="20" rx="10" fill="#E8F8F5"/>
  <text x="860" y="310" text-anchor="middle" font-size="9" fill="#27AE60">Активен</text>
  <rect x="915" y="290" width="30" height="28" rx="4" fill="white" stroke="#4A90D9" stroke-width="1"/>
  <text x="930" y="309" text-anchor="middle" font-size="12" fill="#4A90D9">✏</text>
  <rect x="950" y="290" width="30" height="28" rx="4" fill="white" stroke="#F39C12" stroke-width="1"/>
  <text x="965" y="309" text-anchor="middle" font-size="12" fill="#F39C12">👁</text>
  <rect x="985" y="290" width="30" height="28" rx="4" fill="white" stroke="#E74C3C" stroke-width="1"/>
  <text x="1000" y="309" text-anchor="middle" font-size="12" fill="#E74C3C">📁</text>

  <!-- Row 3 - Archived -->
  <rect x="265" y="335" width="910" height="55" fill="white" stroke="#E8E8E8" stroke-width="1" opacity="0.6"/>
  <rect x="280" y="342" width="40" height="40" rx="4" fill="#E8E8E8"/>
  <text x="300" y="367" text-anchor="middle" font-size="8" fill="#AAA">IMG</text>
  <text x="350" y="360" font-size="12" fill="#999" font-weight="bold">Галогенная G9 40W</text>
  <text x="350" y="376" font-size="10" fill="#CCC">ID: uuid-9012...</text>
  <text x="520" y="368" font-size="12" fill="#CCC">Галогенные</text>
  <text x="620" y="368" font-size="12" fill="#CCC">75 ₽</text>
  <text x="690" y="368" font-size="12" fill="#CCC">0 шт</text>
  <text x="760" y="368" font-size="12" fill="#CCC">G9</text>
  <rect x="825" y="356" width="75" height="20" rx="10" fill="#F5F5F5"/>
  <text x="862" y="370" text-anchor="middle" font-size="9" fill="#999">Архив</text>
  <rect x="915" y="350" width="30" height="28" rx="4" fill="white" stroke="#27AE60" stroke-width="1"/>
  <text x="930" y="369" text-anchor="middle" font-size="12" fill="#27AE60">↩</text>
  <rect x="950" y="350" width="30" height="28" rx="4" fill="white" stroke="#F39C12" stroke-width="1"/>
  <text x="965" y="369" text-anchor="middle" font-size="12" fill="#F39C12">👁</text>

  <!-- Row 4 -->
  <rect x="265" y="395" width="910" height="55" fill="#FAFBFC" stroke="#E8E8E8" stroke-width="1"/>
  <rect x="280" y="402" width="40" height="40" rx="4" fill="#E8E8E8"/>
  <text x="300" y="427" text-anchor="middle" font-size="8" fill="#AAA">IMG</text>
  <text x="350" y="420" font-size="12" fill="#333" font-weight="bold">Точечная GU10 5W</text>
  <text x="350" y="436" font-size="10" fill="#999">ID: uuid-3456...</text>
  <text x="520" y="428" font-size="12" fill="#666">Точечные</text>
  <text x="620" y="428" font-size="12" fill="#333" font-weight="bold">95 ₽</text>
  <text x="690" y="428" font-size="12" fill="#E74C3C">0 шт</text>
  <text x="760" y="428" font-size="12" fill="#666">GU10</text>
  <rect x="825" y="416" width="70" height="20" rx="10" fill="#FEF9E7"/>
  <text x="860" y="430" text-anchor="middle" font-size="9" fill="#F39C12">Нет в нал.</text>
  <rect x="915" y="410" width="30" height="28" rx="4" fill="white" stroke="#4A90D9" stroke-width="1"/>
  <text x="930" y="429" text-anchor="middle" font-size="12" fill="#4A90D9">✏</text>
  <rect x="950" y="410" width="30" height="28" rx="4" fill="white" stroke="#F39C12" stroke-width="1"/>
  <text x="965" y="429" text-anchor="middle" font-size="12" fill="#F39C12">👁</text>
  <rect x="985" y="410" width="30" height="28" rx="4" fill="white" stroke="#E74C3C" stroke-width="1"/>
  <text x="1000" y="429" text-anchor="middle" font-size="12" fill="#E74C3C">📁</text>

  <!-- Pagination -->
  <rect x="265" y="465" width="910" height="40" rx="4" fill="white" stroke="#E0E0E0" stroke-width="1"/>
  <text x="550" y="490" font-size="12" fill="#999">Показано 1-20 из 342</text>
  <rect x="700" y="473" width="28" height="24" rx="4" fill="#4A90D9"/>
  <text x="714" y="490" text-anchor="middle" font-size="11" fill="white">1</text>
  <rect x="733" y="473" width="28" height="24" rx="4" fill="white" stroke="#DDD" stroke-width="1"/>
  <text x="747" y="490" text-anchor="middle" font-size="11" fill="#666">2</text>
  <rect x="766" y="473" width="28" height="24" rx="4" fill="white" stroke="#DDD" stroke-width="1"/>
  <text x="780" y="490" text-anchor="middle" font-size="11" fill="#666">3</text>
  <text x="810" y="490" font-size="11" fill="#999">...</text>
  <rect x="830" y="473" width="28" height="24" rx="4" fill="white" stroke="#DDD" stroke-width="1"/>
  <text x="844" y="490" text-anchor="middle" font-size="11" fill="#666">→</text>

  <!-- ========== EDIT PRODUCT MODAL ========== -->
  <!-- Modal overlay hint -->
  <rect x="265" y="530" width="910" height="530" rx="12" fill="white" stroke="#4A90D9" stroke-width="2"/>
  <text x="280" y="575" class="small">Редактирование товара (модальное окно / отдельная страница)</text>
  <line x1="280" y1="585" x2="1155" y2="585" class="divider"/>

  <!-- Form fields -->
  <text x="295" y="615" font-size="13" fill="#333" font-weight="bold">Название *</text>

  <rect x="295" y="635" width="400" height="35" class="input"/>
  <text x="310" y="658" font-size="12" fill="#333">LED Лампа E27 10W 800лм</text>

  <text x="720" y="615" font-size="13" fill="#333" font-weight="bold">Цена *</text>

  <rect x="720" y="635" width="150" height="35" class="input"/>
  <text x="735" y="658" font-size="12" fill="#333">200</text>
  <text x="850" y="658" font-size="12" fill="#999">₽</text>

  <text x="295" y="695" font-size="13" fill="#333" font-weight="bold">Описание</text>

  <rect x="295" y="715" width="400" height="60" class="input"/>
  <text x="310" y="738" font-size="12" fill="#AAA">Описание товара...</text>

  <text x="720" y="695" font-size="13" fill="#333" font-weight="bold">Кол-во на складе *</text>

  <rect x="720" y="715" width="150" height="35" class="input"/>
  <text x="735" y="738" font-size="12" fill="#333">245</text>

  <!-- Dropdowns row -->
  <text x="295" y="800" font-size="13" fill="#333" font-weight="bold">Категория *</text>
  <rect x="295" y="808" width="180" height="32" class="input"/>
  <text x="310" y="829" font-size="11" fill="#666">LED-лампы ▾</text>

  <text x="490" y="800" font-size="13" fill="#333" font-weight="bold">Тип</text>
  <rect x="490" y="808" width="150" height="32" class="input"/>
  <text x="505" y="829" font-size="11" fill="#666">LED ▾</text>

  <text x="660" y="800" font-size="13" fill="#333" font-weight="bold">Форма</text>
  <rect x="660" y="808" width="130" height="32" class="input"/>
  <text x="675" y="829" font-size="11" fill="#666">A60 ▾</text>

  <text x="810" y="800" font-size="13" fill="#333" font-weight="bold">Цоколь</text>
  <rect x="810" y="808" width="130" height="32" class="input"/>
  <text x="825" y="829" font-size="11" fill="#666">E27 ▾</text>

  <!-- More fields -->
  <text x="295" y="870" font-size="13" fill="#333" font-weight="bold">Яркость (лм) *</text>
  <rect x="295" y="878" width="130" height="32" class="input"/>
  <text x="310" y="899" font-size="12" fill="#333">800</text>

  <text x="450" y="870" font-size="13" fill="#333" font-weight="bold">Поставщик</text>
  <rect x="450" y="878" width="180" height="32" class="input"/>
  <text x="465" y="899" font-size="11" fill="#666">ООО СветТехно ▾</text>

  <text x="660" y="870" font-size="13" fill="#333" font-weight="bold">Доступен с</text>
  <rect x="660" y="878" width="150" height="32" class="input"/>
  <text x="675" y="899" font-size="11" fill="#666">01.01.2026</text>

  <!-- Photo upload -->
  <text x="295" y="940" font-size="13" fill="#333" font-weight="bold">Фотографии</text>
  <rect x="295" y="948" width="100" height="70" rx="4" fill="#E8E8E8"/>
  <text x="345" y="988" text-anchor="middle" font-size="9" fill="#AAA">Фото 1</text>
  <rect x="405" y="948" width="100" height="70" rx="4" fill="#E8E8E8"/>
  <text x="455" y="988" text-anchor="middle" font-size="9" fill="#AAA">Фото 2</text>
  <rect x="515" y="948" width="70" height="70" rx="4" fill="none" stroke="#4A90D9" stroke-width="2" stroke-dasharray="5"/>
  <text x="550" y="988" text-anchor="middle" font-size="18" fill="#4A90D9">+</text>

  <!-- Action buttons -->
  <rect x="295" y="1035" width="160" height="40" class="btn"/>
  <text x="375" y="1061" text-anchor="middle" font-size="14" fill="white" font-weight="bold">💾 Сохранить</text>
  <text x="375" y="1061" text-anchor="middle" font-size="14" fill="white" font-weight="bold">💾 Сохранить</text>

  <rect x="470" y="1035" width="160" height="40" class="btn-warning"/>
  <text x="550" y="1061" text-anchor="middle" font-size="14" fill="white" font-weight="bold">📁 Архивировать</text>

  <rect x="645" y="1035" width="130" height="40" rx="6" fill="white" stroke="#CCC" stroke-width="1"/>
  <text x="710" y="1061" text-anchor="middle" font-size="14" fill="#666">Отмена</text>


</svg>
